<svg aria-hidden="true" style="position: absolute; width: 0; height: 0; overflow: hidden;" version="1.1" xmlns="http://www.w3.org/2000/svg" xmlns:xlink="http://www.w3.org/1999/xlink">
<defs>
<symbol id="icon-FHBVector" viewBox="0 0 32 32">
<path d="M32 4.741l-4.741-4.741v23.704l-23.704-23.704-3.556 3.556 23.704 23.704h-23.704l4.741 4.741h27.259v-27.259z"></path>
</symbol>
<symbol id="icon-FHBuil_cart" viewBox="0 0 32 32">
<path fill="#ae1332" style="fill: var(--color1, #ae1332)" d="M25.333 9.333h-4v-1.333c0-1.415-0.562-2.771-1.562-3.771s-2.357-1.562-3.771-1.562c-1.414 0-2.771 0.562-3.771 1.562s-1.562 2.357-1.562 3.771v1.333h-4c-0.354 0-0.693 0.14-0.943 0.39s-0.391 0.589-0.391 0.943v14.667c0 1.061 0.421 2.078 1.172 2.828s1.768 1.172 2.828 1.172h13.333c1.061 0 2.078-0.422 2.828-1.172s1.172-1.768 1.172-2.828v-14.667c0-0.354-0.141-0.693-0.39-0.943s-0.589-0.39-0.943-0.39zM13.333 8c0-0.707 0.281-1.386 0.781-1.886s1.178-0.781 1.886-0.781c0.707 0 1.386 0.281 1.886 0.781s0.781 1.178 0.781 1.886v1.333h-5.333v-1.333zM24 25.333c0 0.354-0.14 0.693-0.39 0.943s-0.589 0.391-0.943 0.391h-13.333c-0.354 0-0.693-0.141-0.943-0.391s-0.391-0.589-0.391-0.943v-13.333h2.667v1.333c0 0.354 0.14 0.693 0.391 0.943s0.589 0.391 0.943 0.391c0.354 0 0.693-0.141 0.943-0.391s0.39-0.589 0.39-0.943v-1.333h5.333v1.333c0 0.354 0.14 0.693 0.39 0.943s0.589 0.391 0.943 0.391 0.693-0.141 0.943-0.391c0.25-0.25 0.39-0.589 0.39-0.943v-1.333h2.667v13.333z"></path>
</symbol>

<!--BUTTONS-->

<symbol id="buttonsbtn-3" viewBox="0 0 38 32">
<path fill="#fff" style="fill: var(--color1, #fff)" d="M27.976 15.329c0 6.032-4.89 10.922-10.922 10.922s-10.922-4.89-10.922-10.922c0-6.032 4.89-10.922 10.922-10.922s10.922 4.89 10.922 10.922z"></path>
<path fill="#9dc262" style="fill: var(--color2, #9dc262)" d="M12.263 16.508l-0.397-0.397v1.987l-1.987-1.987-0.298 0.298 1.987 1.987h-1.987l0.397 0.397h2.285v-2.285z"></path>
<path fill="#9dc262" style="fill: var(--color2, #9dc262)" d="M15.272 17.369c-0.232 0.058-0.448 0.057-0.647-0.002s-0.371-0.167-0.514-0.323c-0.144-0.158-0.245-0.357-0.305-0.596s-0.063-0.461-0.010-0.666c0.053-0.207 0.153-0.384 0.301-0.53s0.339-0.248 0.571-0.306c0.232-0.058 0.448-0.057 0.647 0.002s0.37 0.168 0.512 0.327c0.143 0.156 0.245 0.354 0.304 0.592s0.063 0.462 0.010 0.669c-0.051 0.205-0.151 0.38-0.299 0.526s-0.339 0.248-0.571 0.306zM15.193 17.051c0.161-0.040 0.291-0.111 0.392-0.211 0.103-0.101 0.171-0.227 0.204-0.378s0.027-0.318-0.019-0.504c-0.046-0.185-0.119-0.336-0.22-0.454s-0.22-0.196-0.358-0.238c-0.136-0.042-0.284-0.043-0.445-0.003s-0.292 0.111-0.395 0.212c-0.103 0.101-0.171 0.227-0.204 0.378-0.031 0.15-0.024 0.318 0.022 0.503s0.118 0.337 0.216 0.454c0.1 0.117 0.22 0.196 0.358 0.238s0.288 0.042 0.448 0.002zM16.685 16.974l-0.584-2.343 0.807-0.201c0.185-0.046 0.345-0.053 0.479-0.020 0.136 0.032 0.246 0.095 0.331 0.188 0.084 0.090 0.142 0.2 0.175 0.33 0.036 0.145 0.030 0.286-0.019 0.424-0.046 0.137-0.145 0.252-0.295 0.344l0.746 0.87-0.412 0.103-0.69-0.83-0.418 0.104 0.235 0.944-0.355 0.088zM16.738 15.674l0.432-0.108c0.161-0.040 0.268-0.108 0.322-0.205 0.056-0.097 0.069-0.208 0.038-0.333s-0.093-0.215-0.185-0.27c-0.093-0.057-0.221-0.066-0.386-0.024l-0.428 0.107 0.208 0.833zM18.587 16.5l-0.584-2.343 0.76-0.189c0.274-0.068 0.512-0.077 0.712-0.025 0.202 0.051 0.368 0.155 0.497 0.31 0.13 0.152 0.226 0.349 0.286 0.59 0.060 0.239 0.068 0.457 0.025 0.655-0.041 0.195-0.139 0.363-0.294 0.503-0.153 0.138-0.367 0.241-0.641 0.309l-0.76 0.189zM18.867 16.11l0.392-0.098c0.212-0.053 0.371-0.129 0.476-0.229 0.108-0.1 0.172-0.222 0.193-0.365 0.024-0.143 0.013-0.305-0.032-0.486s-0.112-0.33-0.2-0.448c-0.086-0.118-0.201-0.196-0.343-0.234-0.14-0.041-0.317-0.035-0.529 0.018l-0.392 0.098 0.435 1.744zM20.806 15.947l-0.584-2.343 1.489-0.371 0.072 0.288-1.135 0.283 0.182 0.73 1.034-0.258 0.070 0.281-1.034 0.258 0.189 0.756 1.134-0.283 0.072 0.288-1.489 0.371zM22.584 15.503l-0.584-2.343 0.806-0.201c0.185-0.046 0.345-0.053 0.478-0.020 0.136 0.032 0.246 0.095 0.331 0.188 0.084 0.090 0.142 0.2 0.175 0.33 0.036 0.145 0.030 0.286-0.019 0.424-0.046 0.137-0.144 0.252-0.295 0.344l0.747 0.87-0.412 0.103-0.691-0.83-0.418 0.104 0.235 0.944-0.355 0.088zM22.637 14.204l0.432-0.108c0.161-0.040 0.268-0.108 0.322-0.205 0.057-0.097 0.069-0.208 0.038-0.333s-0.093-0.215-0.185-0.27c-0.093-0.057-0.221-0.066-0.387-0.024l-0.428 0.107 0.208 0.833z"></path>
</symbol>
<symbol id="buttonsbtn-2" viewBox="0 0 38 32">
<path fill="#9dc262" style="fill: var(--color2, #9dc262)" d="M27.976 15.329c0 6.032-4.89 10.922-10.922 10.922s-10.922-4.89-10.922-10.922c0-6.032 4.89-10.922 10.922-10.922s10.922 4.89 10.922 10.922z"></path>
<path fill="#fff" style="fill: var(--color1, #fff)" d="M12.263 16.508l-0.397-0.397v1.987l-1.987-1.987-0.298 0.298 1.987 1.987h-1.987l0.397 0.397h2.285v-2.285z"></path>
<path fill="#fff" style="fill: var(--color1, #fff)" d="M15.272 17.369c-0.232 0.058-0.448 0.057-0.647-0.002s-0.371-0.167-0.514-0.323c-0.144-0.158-0.245-0.357-0.305-0.596s-0.063-0.461-0.010-0.666c0.053-0.207 0.153-0.384 0.301-0.53s0.339-0.248 0.571-0.306c0.232-0.058 0.448-0.057 0.647 0.002s0.37 0.168 0.512 0.327c0.143 0.156 0.245 0.354 0.304 0.592s0.063 0.462 0.010 0.669c-0.051 0.205-0.151 0.38-0.299 0.526s-0.339 0.248-0.571 0.306zM15.193 17.051c0.161-0.040 0.291-0.111 0.392-0.211 0.103-0.101 0.171-0.227 0.204-0.378s0.027-0.318-0.019-0.504c-0.046-0.185-0.119-0.336-0.22-0.454s-0.22-0.196-0.358-0.238c-0.136-0.042-0.284-0.043-0.445-0.003s-0.292 0.111-0.395 0.212c-0.103 0.101-0.171 0.227-0.204 0.378-0.031 0.15-0.024 0.318 0.022 0.503s0.118 0.337 0.216 0.454c0.1 0.117 0.22 0.196 0.358 0.238s0.288 0.042 0.448 0.002zM16.685 16.974l-0.584-2.343 0.807-0.201c0.185-0.046 0.345-0.053 0.479-0.020 0.136 0.032 0.246 0.095 0.331 0.188 0.084 0.090 0.142 0.2 0.175 0.33 0.036 0.145 0.030 0.286-0.019 0.424-0.046 0.137-0.145 0.252-0.295 0.344l0.746 0.87-0.412 0.103-0.69-0.83-0.418 0.104 0.235 0.944-0.355 0.088zM16.738 15.674l0.432-0.108c0.161-0.040 0.268-0.108 0.322-0.205 0.056-0.097 0.069-0.208 0.038-0.333s-0.093-0.215-0.185-0.27c-0.093-0.057-0.221-0.066-0.386-0.024l-0.428 0.107 0.208 0.833zM18.587 16.5l-0.584-2.343 0.76-0.189c0.274-0.068 0.512-0.077 0.712-0.025 0.202 0.051 0.368 0.155 0.497 0.31 0.13 0.152 0.226 0.349 0.286 0.59 0.060 0.239 0.068 0.457 0.025 0.655-0.041 0.195-0.139 0.363-0.294 0.503-0.153 0.138-0.367 0.241-0.641 0.309l-0.76 0.189zM18.867 16.11l0.392-0.098c0.212-0.053 0.371-0.129 0.476-0.229 0.108-0.1 0.172-0.222 0.193-0.365 0.024-0.143 0.013-0.305-0.032-0.486s-0.112-0.33-0.2-0.448c-0.086-0.118-0.201-0.196-0.343-0.234-0.14-0.041-0.317-0.035-0.529 0.018l-0.392 0.098 0.435 1.744zM20.806 15.947l-0.584-2.343 1.489-0.371 0.072 0.288-1.135 0.283 0.182 0.73 1.034-0.258 0.070 0.281-1.034 0.258 0.189 0.756 1.134-0.283 0.072 0.288-1.489 0.371zM22.584 15.503l-0.584-2.343 0.806-0.201c0.185-0.046 0.345-0.053 0.478-0.020 0.136 0.032 0.246 0.095 0.331 0.188 0.084 0.090 0.142 0.2 0.175 0.33 0.036 0.145 0.030 0.286-0.019 0.424-0.046 0.137-0.144 0.252-0.295 0.344l0.747 0.87-0.412 0.103-0.691-0.83-0.418 0.104 0.235 0.944-0.355 0.088zM22.637 14.204l0.432-0.108c0.161-0.040 0.268-0.108 0.322-0.205 0.057-0.097 0.069-0.208 0.038-0.333s-0.093-0.215-0.185-0.27c-0.093-0.057-0.221-0.066-0.387-0.024l-0.428 0.107 0.208 0.833z"></path>
</symbol>
<symbol id="buttonsbtn-1" viewBox="0 0 35 32">
<path fill="#fff" style="fill: var(--color1, #fff)" d="M26.196 15.216c0 4.938-4.003 8.941-8.941 8.941s-8.941-4.003-8.941-8.941c0-4.938 4.003-8.941 8.941-8.941s8.941 4.003 8.941 8.941z"></path>
<path fill="#a4cb66" style="fill: var(--color3, #a4cb66)" d="M12.912 15.846c-0.219 0.054-0.42 0.064-0.604 0.028s-0.34-0.113-0.47-0.232c-0.126-0.119-0.215-0.277-0.267-0.472l0.477-0.119c0.043 0.158 0.132 0.28 0.267 0.363s0.301 0.101 0.497 0.053c0.173-0.043 0.298-0.118 0.374-0.225 0.078-0.11 0.101-0.23 0.068-0.361-0.026-0.105-0.072-0.184-0.136-0.238-0.062-0.054-0.139-0.092-0.232-0.114-0.090-0.023-0.192-0.038-0.306-0.046s-0.234-0.017-0.36-0.028c-0.249-0.019-0.447-0.076-0.594-0.169-0.144-0.094-0.241-0.24-0.291-0.439-0.045-0.167-0.043-0.323 0.006-0.468 0.051-0.146 0.141-0.271 0.269-0.375 0.13-0.108 0.293-0.186 0.489-0.235 0.193-0.048 0.371-0.055 0.534-0.020 0.165 0.034 0.305 0.105 0.42 0.212 0.114 0.104 0.193 0.24 0.237 0.407l-0.477 0.119c-0.019-0.077-0.057-0.144-0.114-0.202-0.057-0.061-0.13-0.105-0.218-0.131s-0.187-0.026-0.298 0.002c-0.143 0.033-0.252 0.098-0.327 0.195-0.072 0.097-0.092 0.21-0.060 0.341 0.029 0.117 0.085 0.197 0.169 0.243s0.191 0.075 0.321 0.088c0.129 0.010 0.277 0.023 0.444 0.039 0.16 0.011 0.306 0.037 0.44 0.076s0.248 0.106 0.344 0.199c0.099 0.093 0.169 0.225 0.212 0.395 0.038 0.151 0.034 0.301-0.010 0.451-0.045 0.147-0.134 0.281-0.267 0.401-0.134 0.118-0.313 0.205-0.537 0.261zM14.249 15.458l-0.744-2.983 0.452-0.113 0.319 1.278 1.445-0.36-0.319-1.278 0.452-0.113 0.744 2.983-0.452 0.113-0.333-1.334-1.445 0.36 0.333 1.334-0.452 0.113zM18.423 14.472c-0.296 0.074-0.57 0.073-0.825-0.003s-0.472-0.213-0.655-0.412c-0.183-0.202-0.313-0.455-0.388-0.759s-0.080-0.587-0.012-0.848c0.067-0.264 0.195-0.489 0.384-0.675s0.431-0.316 0.727-0.389c0.296-0.074 0.57-0.073 0.825 0.003s0.471 0.214 0.652 0.417c0.182 0.199 0.312 0.45 0.387 0.754s0.080 0.588 0.013 0.852c-0.065 0.261-0.192 0.484-0.381 0.67s-0.431 0.316-0.727 0.389zM18.322 14.067c0.205-0.051 0.371-0.141 0.499-0.269 0.131-0.129 0.218-0.29 0.26-0.481s0.035-0.405-0.024-0.641-0.152-0.428-0.28-0.578c-0.128-0.149-0.28-0.25-0.456-0.303-0.173-0.053-0.362-0.055-0.567-0.004s-0.372 0.141-0.503 0.27c-0.131 0.129-0.217 0.29-0.26 0.481-0.040 0.191-0.030 0.404 0.028 0.64s0.151 0.429 0.276 0.579c0.128 0.149 0.28 0.25 0.456 0.303s0.366 0.053 0.571 0.002zM20.222 13.969l-0.744-2.983 1.044-0.26c0.233-0.058 0.436-0.066 0.609-0.025 0.173 0.038 0.313 0.117 0.421 0.235 0.11 0.114 0.186 0.257 0.229 0.427 0.040 0.162 0.041 0.32 0.001 0.475-0.038 0.151-0.123 0.286-0.257 0.404s-0.32 0.206-0.558 0.266l-0.592 0.148 0.3 1.202-0.452 0.113zM20.282 12.284l0.571-0.142c0.213-0.053 0.354-0.136 0.422-0.25 0.070-0.117 0.086-0.255 0.046-0.414-0.041-0.165-0.12-0.281-0.236-0.348-0.114-0.071-0.278-0.080-0.491-0.027l-0.571 0.142 0.259 1.040zM13.335 20.213l-0.744-2.983 0.452-0.113 2.056 1.873-0.56-2.246 0.452-0.113 0.744 2.983-0.452 0.113-2.056-1.873 0.56 2.246-0.452 0.113zM17.559 19.214c-0.296 0.074-0.57 0.073-0.824-0.003s-0.472-0.213-0.655-0.412c-0.183-0.202-0.313-0.455-0.388-0.759s-0.080-0.587-0.012-0.848c0.067-0.264 0.195-0.489 0.384-0.675s0.431-0.316 0.727-0.389c0.295-0.074 0.57-0.073 0.824 0.003s0.471 0.214 0.652 0.417c0.182 0.199 0.312 0.45 0.387 0.754s0.080 0.588 0.013 0.852c-0.065 0.261-0.192 0.484-0.381 0.67s-0.431 0.316-0.727 0.39zM17.458 18.809c0.205-0.051 0.371-0.141 0.499-0.269 0.131-0.129 0.217-0.29 0.26-0.481s0.035-0.405-0.024-0.641c-0.059-0.236-0.152-0.428-0.28-0.578s-0.28-0.25-0.456-0.303c-0.173-0.053-0.362-0.054-0.567-0.003s-0.372 0.141-0.503 0.27c-0.131 0.129-0.218 0.29-0.26 0.481-0.040 0.191-0.030 0.404 0.028 0.64s0.151 0.429 0.275 0.579c0.128 0.149 0.28 0.25 0.456 0.303s0.366 0.053 0.571 0.003zM19.847 18.593l-1.55-2.787 0.486-0.121 1.209 2.324 0.066-2.642 0.499-0.124 1.277 2.307-0.024-2.619 0.486-0.121-0.074 3.187-0.528 0.132-1.235-2.177-0.090 2.508-0.519 0.134z"></path>
</symbol>
<symbol id="buttonsbtn" viewBox="0 0 34 32">
<path fill="#fff" style="fill: var(--color1, #fff)" d="M25.726 15.216c0 4.938-4.003 8.941-8.941 8.941s-8.941-4.003-8.941-8.941c0-4.938 4.003-8.941 8.941-8.941s8.941 4.003 8.941 8.941z"></path>
<path fill="#ae1332" style="fill: var(--color4, #ae1332)" d="M12.441 15.846c-0.219 0.054-0.42 0.064-0.604 0.028s-0.34-0.113-0.47-0.232c-0.126-0.119-0.215-0.277-0.267-0.472l0.477-0.119c0.043 0.158 0.132 0.28 0.267 0.363s0.301 0.101 0.497 0.053c0.173-0.043 0.298-0.118 0.374-0.225 0.078-0.11 0.101-0.23 0.068-0.361-0.026-0.105-0.072-0.184-0.136-0.238-0.062-0.054-0.139-0.092-0.232-0.114-0.090-0.023-0.192-0.038-0.306-0.046s-0.234-0.017-0.36-0.028c-0.249-0.019-0.447-0.076-0.594-0.169-0.144-0.094-0.241-0.24-0.291-0.439-0.045-0.167-0.043-0.323 0.006-0.468 0.051-0.146 0.141-0.271 0.269-0.375 0.13-0.108 0.293-0.186 0.489-0.235 0.193-0.048 0.371-0.055 0.534-0.020 0.165 0.034 0.305 0.105 0.42 0.212 0.114 0.104 0.193 0.24 0.237 0.407l-0.477 0.119c-0.019-0.077-0.057-0.144-0.114-0.202-0.057-0.061-0.13-0.105-0.218-0.131s-0.187-0.026-0.298 0.002c-0.143 0.033-0.252 0.098-0.327 0.195-0.072 0.097-0.092 0.21-0.060 0.341 0.029 0.117 0.085 0.197 0.169 0.243s0.191 0.075 0.321 0.088c0.129 0.010 0.277 0.023 0.444 0.039 0.16 0.011 0.306 0.037 0.44 0.076s0.248 0.106 0.344 0.199c0.099 0.093 0.169 0.225 0.212 0.395 0.038 0.151 0.034 0.301-0.010 0.451-0.045 0.147-0.134 0.281-0.267 0.401-0.134 0.118-0.313 0.205-0.537 0.261zM13.779 15.458l-0.744-2.983 0.452-0.113 0.319 1.278 1.445-0.36-0.319-1.278 0.452-0.113 0.744 2.983-0.452 0.113-0.333-1.334-1.445 0.36 0.333 1.334-0.452 0.113zM17.953 14.472c-0.296 0.074-0.57 0.073-0.825-0.003s-0.472-0.213-0.655-0.412c-0.183-0.202-0.313-0.455-0.388-0.759s-0.080-0.587-0.012-0.848c0.067-0.264 0.195-0.489 0.384-0.675s0.431-0.316 0.727-0.389c0.296-0.074 0.57-0.073 0.825 0.003s0.471 0.214 0.652 0.417c0.182 0.199 0.312 0.45 0.387 0.754s0.080 0.588 0.013 0.852c-0.065 0.261-0.192 0.484-0.381 0.67s-0.431 0.316-0.727 0.389zM17.852 14.067c0.205-0.051 0.371-0.141 0.499-0.269 0.131-0.129 0.218-0.29 0.26-0.481s0.035-0.405-0.024-0.641-0.152-0.428-0.28-0.578c-0.128-0.149-0.28-0.25-0.456-0.303-0.173-0.053-0.362-0.055-0.567-0.004s-0.372 0.141-0.503 0.27c-0.131 0.129-0.217 0.29-0.26 0.481-0.040 0.191-0.030 0.404 0.028 0.64s0.151 0.429 0.276 0.579c0.128 0.149 0.28 0.25 0.456 0.303s0.366 0.053 0.571 0.002zM19.751 13.969l-0.744-2.983 1.044-0.26c0.233-0.058 0.436-0.066 0.609-0.025 0.173 0.038 0.313 0.117 0.421 0.235 0.11 0.114 0.186 0.257 0.229 0.427 0.040 0.162 0.041 0.32 0.001 0.475-0.038 0.151-0.123 0.286-0.257 0.404s-0.32 0.206-0.558 0.266l-0.592 0.148 0.3 1.202-0.452 0.113zM19.811 12.284l0.571-0.142c0.213-0.053 0.354-0.136 0.422-0.25 0.070-0.117 0.086-0.255 0.046-0.414-0.041-0.165-0.12-0.281-0.236-0.348-0.114-0.071-0.278-0.080-0.491-0.027l-0.571 0.142 0.259 1.040zM12.864 20.213l-0.744-2.983 0.452-0.113 2.056 1.873-0.56-2.246 0.452-0.113 0.744 2.983-0.452 0.113-2.056-1.873 0.56 2.246-0.452 0.113zM17.088 19.214c-0.296 0.074-0.57 0.073-0.824-0.003s-0.472-0.213-0.655-0.412c-0.183-0.202-0.313-0.455-0.388-0.759s-0.080-0.587-0.012-0.848c0.067-0.264 0.195-0.489 0.384-0.675s0.431-0.316 0.727-0.389c0.295-0.074 0.57-0.073 0.824 0.003s0.471 0.214 0.652 0.417c0.182 0.199 0.312 0.45 0.387 0.754s0.080 0.588 0.013 0.852c-0.065 0.261-0.192 0.484-0.381 0.67s-0.431 0.316-0.727 0.39zM16.987 18.809c0.205-0.051 0.371-0.141 0.499-0.269 0.131-0.129 0.217-0.29 0.26-0.481s0.035-0.405-0.024-0.641c-0.059-0.236-0.152-0.428-0.28-0.578s-0.28-0.25-0.456-0.303c-0.173-0.053-0.362-0.054-0.567-0.003s-0.372 0.141-0.503 0.27c-0.131 0.129-0.218 0.29-0.26 0.481-0.040 0.191-0.030 0.404 0.028 0.64s0.151 0.429 0.276 0.579c0.128 0.149 0.28 0.25 0.456 0.303s0.366 0.053 0.571 0.003zM19.377 18.593l-1.55-2.787 0.486-0.121 1.209 2.324 0.066-2.642 0.499-0.124 1.277 2.307-0.024-2.619 0.486-0.121-0.074 3.187-0.528 0.132-1.235-2.177-0.090 2.508-0.519 0.134z"></path>
</symbol>
</defs>

<!--NETWORKS-->

<defs>
<symbol id="buttons3" viewBox="0 0 32 32">
<path fill="#ae1332" style="fill: var(--color1, #ae1332)" opacity="0.8" d="M21.244 9.636c-0.865-0.051-2.647-0.102-5.345-0.102h-0.356c-2.596 0-4.327 0.051-5.193 0.153-1.171 0.102-1.986 0.407-2.444 0.815-0.407 0.356-0.713 1.018-0.814 1.884-0.051 0.56-0.102 1.731-0.102 3.513v0.255c0 1.68 0.051 2.851 0.153 3.411 0.153 0.815 0.407 1.425 0.916 1.782 0.509 0.407 1.375 0.662 2.596 0.764 0.865 0.051 2.647 0.102 5.345 0.102h0.356c2.596 0 4.327-0.051 5.193-0.153 1.171-0.102 1.985-0.407 2.444-0.815 0.407-0.356 0.713-1.018 0.814-1.884 0.051-0.56 0.102-1.731 0.102-3.513v-0.255c0-1.68-0.051-2.851-0.153-3.411-0.153-0.815-0.407-1.425-0.916-1.782-0.509-0.407-1.375-0.662-2.596-0.764zM19.258 15.898l-5.6 3.36v-6.72l5.6 3.36z"></path>
<path fill="none" stroke="#ae1332" style="stroke: var(--color1, #ae1332)" stroke-linejoin="miter" stroke-linecap="butt" stroke-miterlimit="4" stroke-width="0.7273" d="M7.273 0.364h17.455c3.816 0 6.909 3.093 6.909 6.909v17.455c0 3.816-3.093 6.909-6.909 6.909h-17.455c-3.816 0-6.909-3.093-6.909-6.909v-17.455c0-3.816 3.093-6.909 6.909-6.909z"></path>
</symbol>
<symbol id="buttons2" viewBox="0 0 32 32">
<path fill="#ae1332" style="fill: var(--color1, #ae1332)" opacity="0.8" d="M24.093 12.663c-0.010-0.684-0.137-1.362-0.379-2.001-0.424-1.092-1.288-1.955-2.382-2.378-0.632-0.238-1.301-0.365-1.978-0.379-0.87-0.039-1.146-0.050-3.355-0.050s-2.492 0-3.356 0.050c-0.676 0.014-1.344 0.142-1.977 0.379-1.094 0.423-1.959 1.286-2.382 2.378-0.238 0.631-0.366 1.299-0.379 1.973-0.039 0.87-0.051 1.145-0.051 3.351s0 2.487 0.051 3.351c0.014 0.676 0.141 1.342 0.379 1.975 0.424 1.091 1.288 1.954 2.383 2.377 0.63 0.246 1.298 0.385 1.977 0.406 0.871 0.039 1.147 0.051 3.356 0.051s2.492 0 3.356-0.051c0.676-0.014 1.344-0.141 1.978-0.378 1.094-0.424 1.958-1.287 2.382-2.378 0.238-0.632 0.365-1.299 0.379-1.975 0.039-0.869 0.051-1.144 0.051-3.351-0.002-2.205-0.002-2.485-0.052-3.35zM15.994 20.156c-2.31 0-4.182-1.869-4.182-4.175s1.872-4.175 4.182-4.175c2.309 0 4.182 1.869 4.182 4.175s-1.874 4.175-4.182 4.175zM20.342 12.625c-0.54 0-0.975-0.435-0.975-0.974s0.435-0.974 0.975-0.974c0.538 0 0.974 0.435 0.974 0.974s-0.436 0.974-0.974 0.974z"></path>
<path fill="#ae1332" style="fill: var(--color1, #ae1332)" opacity="0.8" d="M15.995 18.53c1.407 0 2.548-1.141 2.548-2.548s-1.141-2.548-2.548-2.548c-1.407 0-2.548 1.141-2.548 2.548s1.141 2.548 2.548 2.548z"></path>
<path fill="none" stroke="#ae1332" style="stroke: var(--color1, #ae1332)" stroke-linejoin="miter" stroke-linecap="butt" stroke-miterlimit="4" stroke-width="0.7273" d="M7.273 0.364h17.455c3.816 0 6.909 3.093 6.909 6.909v17.455c0 3.816-3.093 6.909-6.909 6.909h-17.455c-3.816 0-6.909-3.093-6.909-6.909v-17.455c0-3.816 3.093-6.909 6.909-6.909z"></path>
</symbol>
<symbol id="buttons1" viewBox="0 0 32 32">
<path fill="#ae1332" style="fill: var(--color1, #ae1332)" opacity="0.8" d="M18.24 8.771c0.153 0 0.305 0 0.611 0v2.291c-0.153 0-0.458 0-0.764 0s-0.611 0-0.764 0.153c-0.153 0.153-0.153 0.305-0.153 0.662 0 0.305 0 0.509 0 0.815h1.68v1.935h-1.68v8.4h-2.596v-8.451h-1.375v-1.935h1.375v-0.662c0-1.12 0.153-1.935 0.458-2.291 0.458-0.662 1.375-0.967 2.749-0.967 0.153 0.051 0.305 0.051 0.458 0.051z"></path>
<path fill="none" stroke="#ae1332" style="stroke: var(--color1, #ae1332)" stroke-linejoin="miter" stroke-linecap="butt" stroke-miterlimit="4" stroke-width="0.7273" d="M7.273 0.364h17.455c3.816 0 6.909 3.093 6.909 6.909v17.455c0 3.816-3.093 6.909-6.909 6.909h-17.455c-3.816 0-6.909-3.093-6.909-6.909v-17.455c0-3.816 3.093-6.909 6.909-6.909z"></path>
</symbol>
</defs>
</svg>